<svg width="24" height="24" viewBox="0 0 24 24" fill="none" xmlns="http://www.w3.org/2000/svg">
<path d="M16 16C16 14.895 12.866 14 9 14M16 16C16 17.105 12.866 18 9 18C5.134 18 2 17.105 2 16M16 16V20.937C16 22.076 12.866 23 9 23C5.134 23 2 22.077 2 20.937V16M16 16C19.824 16 23 15.013 23 14V4M9 14C5.134 14 2 14.895 2 16M9 14C4.582 14 1 13.013 1 12V7M9 5C4.582 5 1 5.895 1 7M1 7C1 8.105 4.582 9 9 9C9 10.013 12.253 11 16.077 11C19.9 11 23 10.013 23 9M23 4C23 2.895 19.9 2 16.077 2C12.253 2 9.154 2.895 9.154 4M23 4C23 5.105 19.9 6 16.077 6C12.254 6 9.154 5.105 9.154 4M9.154 4V14.166" stroke="white" stroke-width="2"/>
</svg>
