<svg width="24" height="24" viewBox="0 0 24 24" fill="none" xmlns="http://www.w3.org/2000/svg">
<path d="M19.9995 9.99999C19.3144 8.82977 18.2044 7.96881 16.9006 7.59629C15.5967 7.22376 14.1995 7.36836 12.9995 7.99999V2.99999H10.9995V7.99999C9.7996 7.36836 8.40232 7.22376 7.09847 7.59629C5.79462 7.96881 4.68464 8.82977 3.99953 9.99999C1.99953 13 6.99953 22 8.99953 22C10.9995 22 10.9995 21 11.9995 21C12.9995 21 12.9995 22 14.9995 22C16.9995 22 21.9995 13 19.9995 9.99999ZM18.2495 13.38C17.6295 15.85 16.4095 18.12 14.6995 20C14.4995 20 14.2695 19.9 14.0995 19.75C13.5051 19.2694 12.7639 19.0072 11.9995 19.0072C11.2352 19.0072 10.4939 19.2694 9.89953 19.75C9.72953 19.9 9.49953 20 9.29953 20C7.58477 18.1263 6.36459 15.8543 5.74953 13.39C5.49953 12.66 5.44953 11.87 5.65953 11.12C5.94415 10.6125 6.35532 10.1874 6.85301 9.88597C7.35069 9.58455 7.91794 9.41713 8.49953 9.39999C9.05953 9.40999 9.60953 9.53999 10.1095 9.78999L10.9995 10.24H12.9995L13.8895 9.78999C14.3895 9.53999 14.9395 9.40999 15.4995 9.39999C16.6795 9.42999 17.7595 10.08 18.3395 11.11C18.5495 11.86 18.4995 12.65 18.2495 13.38ZM10.9995 4.99999C5.37953 8.06999 4.10953 3.77999 4.10953 3.77999C4.10953 3.77999 6.76953 0.18999 10.9995 4.99999Z" fill="white"/>
</svg>
