<svg width="118" height="70" viewBox="0 0 118 70" fill="none" xmlns="http://www.w3.org/2000/svg">
<path d="M25.9803 0.655998C27.0603 0.655998 28.0443 0.691998 28.9323 0.763999C29.8203 0.835999 30.6603 0.931999 31.4523 1.052C32.2683 1.172 33.0603 1.352 33.8283 1.592L33.3963 5.588C32.5563 5.54 31.7403 5.504 30.9483 5.48C30.1563 5.456 29.3643 5.444 28.5723 5.444C27.7803 5.42 26.9523 5.408 26.0883 5.408C25.0563 5.408 24.1923 5.516 23.4963 5.732C22.8243 5.948 22.2843 6.356 21.8763 6.956C21.4683 7.532 21.1683 8.372 20.9763 9.476C20.8083 10.556 20.7243 11.948 20.7243 13.652C20.7243 15.716 20.8563 17.336 21.1203 18.512C21.3843 19.688 21.8283 20.528 22.4523 21.032C23.0763 21.512 23.9163 21.752 24.9723 21.752C25.6923 21.752 26.3523 21.68 26.9523 21.536C27.5523 21.392 28.1043 21.2 28.6083 20.96C29.1123 20.696 29.5803 20.444 30.0123 20.204L30.5883 22.796C30.2283 23.3 29.6883 23.84 28.9683 24.416C28.2723 24.992 27.4203 25.484 26.4123 25.892C25.4043 26.3 24.2523 26.504 22.9563 26.504C21.0843 26.504 19.5483 26.06 18.3483 25.172C17.1723 24.284 16.3083 22.892 15.7563 20.996C15.2043 19.076 14.9283 16.592 14.9283 13.544C14.9283 10.304 15.2763 7.748 15.9723 5.876C16.6923 4.004 17.8563 2.672 19.4643 1.88C21.0963 1.064 23.2683 0.655998 25.9803 0.655998ZM34.6923 11.672V26H30.6243L29.8683 22.22L29.3643 21.212V11.672H34.6923ZM48.1361 7.748C49.6241 7.748 50.8841 7.952 51.9161 8.36C52.9481 8.744 53.7281 9.416 54.2561 10.376C54.8081 11.312 55.0841 12.608 55.0841 14.264V26H50.8361L50.0801 22.148L49.7201 21.608V14.228C49.7201 13.388 49.5161 12.776 49.1081 12.392C48.7241 12.008 47.9801 11.816 46.8761 11.816C45.9641 11.816 44.8241 11.852 43.4561 11.924C42.0881 11.972 40.6841 12.044 39.2441 12.14L38.7401 8.612C39.6041 8.444 40.6001 8.3 41.7281 8.18C42.8561 8.06 43.9841 7.964 45.1121 7.892C46.2401 7.796 47.2481 7.748 48.1361 7.748ZM52.8881 15.056L52.8521 18.044L44.9321 18.08C44.2841 18.08 43.8161 18.236 43.5281 18.548C43.2641 18.86 43.1321 19.28 43.1321 19.808V20.672C43.1321 21.272 43.3001 21.74 43.6361 22.076C43.9721 22.388 44.5121 22.544 45.2561 22.544C45.8801 22.544 46.5521 22.412 47.2721 22.148C48.0161 21.884 48.7481 21.512 49.4681 21.032C50.1881 20.552 50.8241 19.988 51.3761 19.34V21.644C51.1601 22.004 50.8361 22.46 50.4041 23.012C49.9961 23.54 49.4681 24.068 48.8201 24.596C48.1721 25.1 47.4161 25.532 46.5521 25.892C45.6881 26.252 44.7041 26.432 43.6001 26.432C42.5201 26.432 41.5481 26.24 40.6841 25.856C39.8201 25.472 39.1361 24.908 38.6321 24.164C38.1281 23.42 37.8761 22.496 37.8761 21.392V19.556C37.8761 18.14 38.3561 17.036 39.3161 16.244C40.2761 15.452 41.5961 15.056 43.2761 15.056H52.8881ZM64.4913 8.216V19.916C64.4913 20.66 64.6473 21.188 64.9593 21.5C65.2953 21.812 65.8233 21.968 66.5433 21.968C67.2873 21.968 68.0193 21.836 68.7393 21.572C69.4833 21.284 70.3953 20.84 71.4753 20.24L71.9073 23.156C70.6113 24.284 69.3393 25.124 68.0913 25.676C66.8433 26.228 65.5593 26.504 64.2393 26.504C60.8553 26.504 59.1633 24.848 59.1633 21.536V8.216H64.4913ZM76.2633 8.216V26H72.0513L71.4393 22.508L70.9353 22.004V8.216H76.2633ZM84.7872 8.216L85.4352 11.744L85.9392 12.212V26H80.6112V8.216H84.7872ZM93.4632 7.748L92.9592 12.68H91.4832C90.6432 12.68 89.7672 12.8 88.8552 13.04C87.9432 13.28 86.7912 13.64 85.3992 14.12L85.0392 11.132C86.2872 10.028 87.5472 9.188 88.8192 8.612C90.0912 8.036 91.3272 7.748 92.5272 7.748H93.4632ZM101.41 8.216V26H96.1185V8.216H101.41ZM99.9345 0.368C100.99 0.368 101.518 0.907999 101.518 1.988V3.896C101.518 4.976 100.99 5.516 99.9345 5.516H97.6305C96.5745 5.516 96.0465 4.976 96.0465 3.896V1.988C96.0465 0.907999 96.5745 0.368 97.6305 0.368H99.9345ZM11.3378 43.656C12.4178 43.656 13.4018 43.692 14.2898 43.764C15.1778 43.836 16.0178 43.932 16.8098 44.052C17.6258 44.172 18.4178 44.352 19.1858 44.592L18.7538 48.588C17.9138 48.54 17.0978 48.504 16.3058 48.48C15.5138 48.456 14.7218 48.444 13.9298 48.444C13.1378 48.42 12.3098 48.408 11.4458 48.408C10.4138 48.408 9.54975 48.516 8.85375 48.732C8.18175 48.948 7.64175 49.356 7.23375 49.956C6.82575 50.532 6.52575 51.372 6.33375 52.476C6.16575 53.556 6.08175 54.948 6.08175 56.652C6.08175 58.716 6.21375 60.336 6.47775 61.512C6.74175 62.688 7.18575 63.528 7.80975 64.032C8.43375 64.512 9.27375 64.752 10.3298 64.752C11.0498 64.752 11.7098 64.68 12.3098 64.536C12.9098 64.392 13.4618 64.2 13.9658 63.96C14.4698 63.696 14.9378 63.444 15.3698 63.204L15.9458 65.796C15.5858 66.3 15.0458 66.84 14.3258 67.416C13.6298 67.992 12.7778 68.484 11.7698 68.892C10.7618 69.3 9.60975 69.504 8.31375 69.504C6.44175 69.504 4.90575 69.06 3.70575 68.172C2.52975 67.284 1.66575 65.892 1.11375 63.996C0.56175 62.076 0.28575 59.592 0.28575 56.544C0.28575 53.304 0.63375 50.748 1.32975 48.876C2.04975 47.004 3.21375 45.672 4.82175 44.88C6.45375 44.064 8.62575 43.656 11.3378 43.656ZM20.0498 54.672V69H15.9818L15.2258 65.22L14.7218 64.212V54.672H20.0498ZM28.2735 51.216L28.9215 54.744L29.4255 55.212V69H24.0975V51.216H28.2735ZM36.9495 50.748L36.4455 55.68H34.9695C34.1295 55.68 33.2535 55.8 32.3415 56.04C31.4295 56.28 30.2775 56.64 28.8855 57.12L28.5255 54.132C29.7735 53.028 31.0335 52.188 32.3055 51.612C33.5775 51.036 34.8135 50.748 36.0135 50.748H36.9495ZM47.6035 50.748C50.6035 50.748 52.7515 51.264 54.0475 52.296C55.3675 53.304 56.0275 54.816 56.0275 56.832C56.0515 58.464 55.6435 59.688 54.8035 60.504C53.9635 61.296 52.5115 61.692 50.4475 61.692H40.5115V58.704H48.9715C49.7875 58.704 50.3035 58.536 50.5195 58.2C50.7595 57.84 50.8795 57.348 50.8795 56.724C50.8555 55.884 50.6035 55.308 50.1235 54.996C49.6675 54.66 48.8875 54.492 47.7835 54.492C46.7995 54.492 46.0315 54.624 45.4795 54.888C44.9275 55.152 44.5435 55.656 44.3275 56.4C44.1115 57.144 44.0035 58.224 44.0035 59.64C44.0035 61.128 44.1355 62.28 44.3995 63.096C44.6635 63.888 45.1075 64.44 45.7315 64.752C46.3795 65.064 47.2675 65.22 48.3955 65.22C49.2115 65.22 50.2195 65.196 51.4195 65.148C52.6435 65.076 53.8675 64.968 55.0915 64.824L55.5955 68.1C54.8995 68.436 54.1075 68.7 53.2195 68.892C52.3315 69.084 51.4195 69.216 50.4835 69.288C49.5475 69.384 48.6475 69.432 47.7835 69.432C45.5275 69.432 43.7035 69.108 42.3115 68.46C40.9435 67.788 39.9475 66.768 39.3235 65.4C38.7235 64.032 38.4235 62.28 38.4235 60.144C38.4235 57.816 38.7355 55.968 39.3595 54.6C39.9835 53.232 40.9675 52.248 42.3115 51.648C43.6555 51.048 45.4195 50.748 47.6035 50.748ZM67.9238 50.748C70.9238 50.748 73.0718 51.264 74.3678 52.296C75.6878 53.304 76.3478 54.816 76.3478 56.832C76.3718 58.464 75.9638 59.688 75.1238 60.504C74.2838 61.296 72.8318 61.692 70.7678 61.692H60.8318V58.704H69.2918C70.1078 58.704 70.6238 58.536 70.8398 58.2C71.0798 57.84 71.1998 57.348 71.1998 56.724C71.1758 55.884 70.9238 55.308 70.4438 54.996C69.9878 54.66 69.2078 54.492 68.1038 54.492C67.1198 54.492 66.3518 54.624 65.7998 54.888C65.2478 55.152 64.8638 55.656 64.6478 56.4C64.4318 57.144 64.3238 58.224 64.3238 59.64C64.3238 61.128 64.4558 62.28 64.7198 63.096C64.9838 63.888 65.4278 64.44 66.0518 64.752C66.6998 65.064 67.5878 65.22 68.7158 65.22C69.5318 65.22 70.5398 65.196 71.7398 65.148C72.9638 65.076 74.1878 64.968 75.4118 64.824L75.9158 68.1C75.2198 68.436 74.4278 68.7 73.5398 68.892C72.6518 69.084 71.7398 69.216 70.8038 69.288C69.8678 69.384 68.9678 69.432 68.1038 69.432C65.8478 69.432 64.0238 69.108 62.6318 68.46C61.2638 67.788 60.2678 66.768 59.6438 65.4C59.0438 64.032 58.7438 62.28 58.7438 60.144C58.7438 57.816 59.0558 55.968 59.6798 54.6C60.3038 53.232 61.2878 52.248 62.6318 51.648C63.9758 51.048 65.7398 50.748 67.9238 50.748ZM92.2042 50.748C95.5642 50.748 97.2442 52.392 97.2442 55.68V69H91.9162V57.336C91.9162 56.544 91.7722 56.004 91.4842 55.716C91.1962 55.404 90.7042 55.248 90.0082 55.248C89.2402 55.248 88.4482 55.404 87.6322 55.716C86.8162 56.004 85.8082 56.46 84.6082 57.084L84.3562 54.096C85.6282 53.016 86.9242 52.188 88.2442 51.612C89.5882 51.036 90.9082 50.748 92.2042 50.748ZM84.1042 51.216L84.7162 54.744L85.1482 55.212V69H79.8202V51.216H84.1042ZM108.209 50.748C109.073 50.748 110.009 50.784 111.017 50.856C112.025 50.904 113.009 50.976 113.969 51.072C114.929 51.168 115.781 51.288 116.525 51.432L116.165 54.744C115.013 54.72 113.849 54.708 112.673 54.708C111.521 54.684 110.393 54.672 109.289 54.672C108.353 54.648 107.633 54.66 107.129 54.708C106.625 54.756 106.265 54.876 106.049 55.068C105.857 55.236 105.761 55.548 105.761 56.004C105.761 56.532 105.941 56.892 106.301 57.084C106.661 57.252 107.261 57.444 108.101 57.66L112.745 58.776C114.233 59.16 115.337 59.736 116.057 60.504C116.777 61.248 117.137 62.376 117.137 63.888C117.137 65.376 116.861 66.516 116.309 67.308C115.757 68.1 114.881 68.652 113.681 68.964C112.481 69.252 110.933 69.396 109.037 69.396C108.293 69.396 107.189 69.36 105.725 69.288C104.261 69.216 102.653 69.036 100.901 68.748L101.261 65.436C101.693 65.46 102.245 65.484 102.917 65.508C103.589 65.508 104.321 65.508 105.113 65.508C105.905 65.508 106.697 65.508 107.489 65.508C108.713 65.508 109.649 65.484 110.297 65.436C110.945 65.364 111.389 65.22 111.629 65.004C111.869 64.788 111.989 64.464 111.989 64.032C111.989 63.504 111.785 63.144 111.377 62.952C110.969 62.76 110.321 62.556 109.433 62.34L104.933 61.224C103.805 60.912 102.929 60.516 102.305 60.036C101.681 59.556 101.237 58.968 100.973 58.272C100.733 57.576 100.613 56.748 100.613 55.788C100.613 54.564 100.853 53.592 101.333 52.872C101.837 52.128 102.641 51.588 103.745 51.252C104.873 50.916 106.361 50.748 108.209 50.748Z" fill="black"/>
</svg>
