<svg width="24" height="24" viewBox="0 0 24 24" fill="none" xmlns="http://www.w3.org/2000/svg">
<path d="M10 12C10 12.5304 10.2107 13.0391 10.5858 13.4142C10.9609 13.7893 11.4696 14 12 14C12.5304 14 13.0391 13.7893 13.4142 13.4142C13.7893 13.0391 14 12.5304 14 12C14 11.4696 13.7893 10.9609 13.4142 10.5858C13.0391 10.2107 12.5304 10 12 10C11.4696 10 10.9609 10.2107 10.5858 10.5858C10.2107 10.9609 10 11.4696 10 12Z" stroke="white" stroke-width="2" stroke-linecap="round" stroke-linejoin="round"/>
<path d="M11.9391 14C11.9391 14.173 11.9871 14.351 11.9951 14.533V14.75C11.9951 15.9722 11.524 17.1474 10.6797 18.0311C9.83546 18.9149 8.68304 19.4392 7.46212 19.495H7.24512M2.49512 14.745C2.49517 13.8481 2.74914 12.9696 3.22763 12.211C3.70613 11.4525 4.38961 10.8449 5.199 10.4586C6.00839 10.0722 6.91062 9.92294 7.80131 10.028C8.69201 10.133 9.53477 10.488 10.2321 11.052M16.7451 19.495C16.0576 19.495 15.3784 19.3458 14.7542 19.0576C14.13 18.7695 13.5758 18.3493 13.1299 17.8261C12.684 17.3028 12.3569 16.689 12.1714 16.0271C11.9858 15.3651 11.9461 14.6708 12.0551 13.992H11.9951M13.7591 11.048C14.4422 10.4959 15.265 10.1439 16.1361 10.0313C17.0071 9.9187 17.8924 10.0498 18.6934 10.4101C19.4944 10.7703 20.1799 11.3457 20.6736 12.0721C21.1673 12.7985 21.45 13.6476 21.4901 14.525V14.742M10.2951 10.929C9.57368 10.6535 8.93029 10.2063 8.42069 9.62601C7.91109 9.04577 7.55065 8.35002 7.37059 7.59906C7.19053 6.84809 7.19629 6.06455 7.38736 5.3163C7.57843 4.56806 7.94905 3.87769 8.46712 3.305L8.63112 3.133M15.3491 3.133C15.9098 3.69331 16.3213 4.38503 16.5462 5.14512C16.7711 5.9052 16.8022 6.70949 16.6367 7.48467C16.4712 8.25986 16.1143 8.9813 15.5986 9.58326C15.0829 10.1852 14.4247 10.6485 13.6841 10.931" stroke="white" stroke-width="2" stroke-linecap="round" stroke-linejoin="round"/>
</svg>
