<svg width="220" height="70" viewBox="0 0 220 70" fill="none" xmlns="http://www.w3.org/2000/svg">
<path d="M13.9805 1.16V19.736C13.9805 20.336 14.1485 20.792 14.4845 21.104C14.8205 21.416 15.3005 21.572 15.9245 21.572H24.6005L24.8525 25.712C23.1485 25.904 21.3605 26.012 19.4885 26.036C17.6405 26.084 15.7925 26.108 13.9445 26.108C12.1445 26.108 10.7765 25.628 9.84055 24.668C8.92855 23.684 8.47255 22.436 8.47255 20.924V1.16H13.9805ZM32.9573 8.216V26H27.6653V8.216H32.9573ZM31.4813 0.368C32.5373 0.368 33.0653 0.907999 33.0653 1.988V3.896C33.0653 4.976 32.5373 5.516 31.4813 5.516H29.1773C28.1213 5.516 27.5933 4.976 27.5933 3.896V1.988C27.5933 0.907999 28.1213 0.368 29.1773 0.368H31.4813ZM45.9305 7.748C48.1625 7.748 49.9505 8.06 51.2945 8.684C52.6385 9.284 53.5985 10.268 54.1745 11.636C54.7745 13.004 55.0745 14.84 55.0745 17.144C55.0745 19.4 54.7745 21.212 54.1745 22.58C53.5985 23.948 52.6385 24.932 51.2945 25.532C49.9505 26.132 48.1625 26.432 45.9305 26.432C43.7225 26.432 41.9345 26.132 40.5665 25.532C39.2225 24.932 38.2505 23.948 37.6505 22.58C37.0505 21.212 36.7505 19.4 36.7505 17.144C36.7505 14.84 37.0505 13.004 37.6505 11.636C38.2505 10.268 39.2225 9.284 40.5665 8.684C41.9345 8.06 43.7225 7.748 45.9305 7.748ZM45.9305 11.636C45.0185 11.636 44.2985 11.792 43.7705 12.104C43.2425 12.416 42.8705 12.968 42.6545 13.76C42.4385 14.552 42.3305 15.68 42.3305 17.144C42.3305 18.584 42.4385 19.7 42.6545 20.492C42.8705 21.284 43.2425 21.836 43.7705 22.148C44.2985 22.436 45.0185 22.58 45.9305 22.58C46.8425 22.58 47.5625 22.436 48.0905 22.148C48.6185 21.836 48.9905 21.284 49.2065 20.492C49.4225 19.7 49.5305 18.584 49.5305 17.144C49.5305 15.68 49.4225 14.552 49.2065 13.76C48.9905 12.968 48.6185 12.416 48.0905 12.104C47.5625 11.792 46.8425 11.636 45.9305 11.636ZM71.0889 7.748C74.4489 7.748 76.1289 9.392 76.1289 12.68V26H70.8009V14.336C70.8009 13.544 70.6569 13.004 70.3689 12.716C70.0809 12.404 69.5889 12.248 68.8929 12.248C68.1249 12.248 67.3329 12.404 66.5169 12.716C65.7009 13.004 64.6929 13.46 63.4929 14.084L63.2409 11.096C64.5129 10.016 65.8089 9.188 67.1289 8.612C68.4729 8.036 69.7929 7.748 71.0889 7.748ZM62.9889 8.216L63.6009 11.744L64.0329 12.212V26H58.7049V8.216H62.9889ZM87.094 7.748C87.958 7.748 88.894 7.784 89.902 7.856C90.91 7.904 91.894 7.976 92.854 8.072C93.814 8.168 94.666 8.288 95.41 8.432L95.05 11.744C93.898 11.72 92.734 11.708 91.558 11.708C90.406 11.684 89.278 11.672 88.174 11.672C87.238 11.648 86.518 11.66 86.014 11.708C85.51 11.756 85.15 11.876 84.934 12.068C84.742 12.236 84.646 12.548 84.646 13.004C84.646 13.532 84.826 13.892 85.186 14.084C85.546 14.252 86.146 14.444 86.986 14.66L91.63 15.776C93.118 16.16 94.222 16.736 94.942 17.504C95.662 18.248 96.022 19.376 96.022 20.888C96.022 22.376 95.746 23.516 95.194 24.308C94.642 25.1 93.766 25.652 92.566 25.964C91.366 26.252 89.818 26.396 87.922 26.396C87.178 26.396 86.074 26.36 84.61 26.288C83.146 26.216 81.538 26.036 79.786 25.748L80.146 22.436C80.578 22.46 81.13 22.484 81.802 22.508C82.474 22.508 83.206 22.508 83.998 22.508C84.79 22.508 85.582 22.508 86.374 22.508C87.598 22.508 88.534 22.484 89.182 22.436C89.83 22.364 90.274 22.22 90.514 22.004C90.754 21.788 90.874 21.464 90.874 21.032C90.874 20.504 90.67 20.144 90.262 19.952C89.854 19.76 89.206 19.556 88.318 19.34L83.818 18.224C82.69 17.912 81.814 17.516 81.19 17.036C80.566 16.556 80.122 15.968 79.858 15.272C79.618 14.576 79.498 13.748 79.498 12.788C79.498 11.564 79.738 10.592 80.218 9.872C80.722 9.128 81.526 8.588 82.63 8.252C83.758 7.916 85.246 7.748 87.094 7.748ZM115.753 0.692C116.977 0.692 118.309 0.763999 119.749 0.907999C121.189 1.028 122.593 1.292 123.961 1.7L123.601 5.336C122.545 5.312 121.309 5.288 119.893 5.264C118.477 5.24 117.085 5.228 115.717 5.228C115.045 5.228 114.469 5.252 113.989 5.3C113.533 5.324 113.161 5.42 112.873 5.588C112.585 5.732 112.381 5.96 112.261 6.272C112.141 6.584 112.081 7.016 112.081 7.568C112.081 8.408 112.273 9.02 112.657 9.404C113.065 9.788 113.749 10.136 114.709 10.448L119.497 11.996C121.489 12.668 122.869 13.58 123.637 14.732C124.405 15.884 124.789 17.396 124.789 19.268C124.789 20.684 124.621 21.86 124.285 22.796C123.949 23.732 123.421 24.464 122.701 24.992C121.981 25.52 121.033 25.892 119.857 26.108C118.681 26.348 117.241 26.468 115.537 26.468C114.721 26.468 113.557 26.408 112.045 26.288C110.533 26.192 108.805 25.928 106.861 25.496L107.221 21.608C108.637 21.632 109.861 21.668 110.893 21.716C111.949 21.74 112.849 21.764 113.593 21.788C114.337 21.788 114.985 21.788 115.537 21.788C116.497 21.788 117.241 21.728 117.769 21.608C118.321 21.488 118.705 21.248 118.921 20.888C119.137 20.528 119.245 20.012 119.245 19.34C119.245 18.764 119.161 18.308 118.993 17.972C118.849 17.612 118.597 17.336 118.237 17.144C117.901 16.928 117.433 16.736 116.833 16.568L111.793 14.84C109.897 14.144 108.553 13.232 107.761 12.104C106.969 10.976 106.573 9.488 106.573 7.64C106.573 6.2 106.741 5.036 107.077 4.148C107.437 3.236 107.977 2.528 108.697 2.024C109.441 1.52 110.389 1.172 111.541 0.979998C112.717 0.787999 114.121 0.692 115.753 0.692ZM136.738 7.748C139.738 7.748 141.886 8.264 143.182 9.296C144.502 10.304 145.162 11.816 145.162 13.832C145.186 15.464 144.778 16.688 143.938 17.504C143.098 18.296 141.646 18.692 139.582 18.692H129.646V15.704H138.106C138.922 15.704 139.438 15.536 139.654 15.2C139.894 14.84 140.014 14.348 140.014 13.724C139.99 12.884 139.738 12.308 139.258 11.996C138.802 11.66 138.022 11.492 136.918 11.492C135.934 11.492 135.166 11.624 134.614 11.888C134.062 12.152 133.678 12.656 133.462 13.4C133.246 14.144 133.138 15.224 133.138 16.64C133.138 18.128 133.27 19.28 133.534 20.096C133.798 20.888 134.242 21.44 134.866 21.752C135.514 22.064 136.402 22.22 137.53 22.22C138.346 22.22 139.354 22.196 140.554 22.148C141.778 22.076 143.002 21.968 144.226 21.824L144.73 25.1C144.034 25.436 143.242 25.7 142.354 25.892C141.466 26.084 140.554 26.216 139.618 26.288C138.682 26.384 137.782 26.432 136.918 26.432C134.662 26.432 132.838 26.108 131.446 25.46C130.078 24.788 129.082 23.768 128.458 22.4C127.858 21.032 127.558 19.28 127.558 17.144C127.558 14.816 127.87 12.968 128.494 11.6C129.118 10.232 130.102 9.248 131.446 8.648C132.79 8.048 134.554 7.748 136.738 7.748ZM161.019 7.748C164.379 7.748 166.059 9.392 166.059 12.68V26H160.731V14.336C160.731 13.544 160.587 13.004 160.299 12.716C160.011 12.404 159.519 12.248 158.823 12.248C158.055 12.248 157.263 12.404 156.447 12.716C155.631 13.004 154.623 13.46 153.423 14.084L153.171 11.096C154.443 10.016 155.739 9.188 157.059 8.612C158.403 8.036 159.723 7.748 161.019 7.748ZM152.919 8.216L153.531 11.744L153.963 12.212V26H148.635V8.216H152.919ZM175.692 8.216V26H170.4V8.216H175.692ZM174.216 0.368C175.272 0.368 175.8 0.907999 175.8 1.988V3.896C175.8 4.976 175.272 5.516 174.216 5.516H171.912C170.856 5.516 170.328 4.976 170.328 3.896V1.988C170.328 0.907999 170.856 0.368 171.912 0.368H174.216ZM188.665 7.748C190.897 7.748 192.685 8.06 194.029 8.684C195.373 9.284 196.333 10.268 196.909 11.636C197.509 13.004 197.809 14.84 197.809 17.144C197.809 19.4 197.509 21.212 196.909 22.58C196.333 23.948 195.373 24.932 194.029 25.532C192.685 26.132 190.897 26.432 188.665 26.432C186.457 26.432 184.669 26.132 183.301 25.532C181.957 24.932 180.985 23.948 180.385 22.58C179.785 21.212 179.485 19.4 179.485 17.144C179.485 14.84 179.785 13.004 180.385 11.636C180.985 10.268 181.957 9.284 183.301 8.684C184.669 8.06 186.457 7.748 188.665 7.748ZM188.665 11.636C187.753 11.636 187.033 11.792 186.505 12.104C185.977 12.416 185.605 12.968 185.389 13.76C185.173 14.552 185.065 15.68 185.065 17.144C185.065 18.584 185.173 19.7 185.389 20.492C185.605 21.284 185.977 21.836 186.505 22.148C187.033 22.436 187.753 22.58 188.665 22.58C189.577 22.58 190.297 22.436 190.825 22.148C191.353 21.836 191.725 21.284 191.941 20.492C192.157 19.7 192.265 18.584 192.265 17.144C192.265 15.68 192.157 14.552 191.941 13.76C191.725 12.968 191.353 12.416 190.825 12.104C190.297 11.792 189.577 11.636 188.665 11.636ZM205.615 8.216L206.263 11.744L206.767 12.212V26H201.439V8.216H205.615ZM214.291 7.748L213.787 12.68H212.311C211.471 12.68 210.595 12.8 209.683 13.04C208.771 13.28 207.619 13.64 206.227 14.12L205.867 11.132C207.115 10.028 208.375 9.188 209.647 8.612C210.919 8.036 212.155 7.748 213.355 7.748H214.291ZM10.9345 43.728C12.1105 43.728 13.1065 43.764 13.9225 43.836C14.7625 43.884 15.5305 43.968 16.2265 44.088C16.9225 44.208 17.6425 44.376 18.3865 44.592L17.9545 48.624C17.1625 48.576 16.4305 48.54 15.7585 48.516C15.1105 48.492 14.4025 48.48 13.6345 48.48C12.8905 48.456 11.9905 48.444 10.9345 48.444C9.71047 48.444 8.75047 48.684 8.05447 49.164C7.38247 49.644 6.90247 50.484 6.61447 51.684C6.32647 52.86 6.18247 54.492 6.18247 56.58C6.18247 58.668 6.32647 60.312 6.61447 61.512C6.90247 62.688 7.38247 63.516 8.05447 63.996C8.75047 64.476 9.71047 64.716 10.9345 64.716C12.5905 64.716 13.9825 64.692 15.1105 64.644C16.2385 64.596 17.3545 64.512 18.4585 64.392L18.9265 68.424C17.7745 68.784 16.5985 69.036 15.3985 69.18C14.1985 69.348 12.7105 69.432 10.9345 69.432C8.36647 69.432 6.30247 69.024 4.74247 68.208C3.20647 67.368 2.09047 66.012 1.39447 64.14C0.722469 62.268 0.386469 59.748 0.386469 56.58C0.386469 53.412 0.722469 50.892 1.39447 49.02C2.09047 47.148 3.20647 45.804 4.74247 44.988C6.30247 44.148 8.36647 43.728 10.9345 43.728ZM27.4905 51.216V69H22.1985V51.216H27.4905ZM26.0145 43.368C27.0705 43.368 27.5985 43.908 27.5985 44.988V46.896C27.5985 47.976 27.0705 48.516 26.0145 48.516H23.7105C22.6545 48.516 22.1265 47.976 22.1265 46.896V44.988C22.1265 43.908 22.6545 43.368 23.7105 43.368H26.0145ZM38.9518 46.284V63.312C38.9518 63.96 39.0958 64.428 39.3838 64.716C39.6958 64.98 40.1998 65.112 40.8958 65.112H43.1998L43.7758 68.712C43.3438 68.856 42.8158 68.976 42.1918 69.072C41.5678 69.192 40.9438 69.276 40.3198 69.324C39.6958 69.396 39.1678 69.432 38.7358 69.432C37.1278 69.432 35.8678 69 34.9558 68.136C34.0678 67.272 33.6238 66.06 33.6238 64.5L33.5878 46.284H38.9518ZM43.9198 51.216V54.708H30.4918V51.396L33.9478 51.216H43.9198ZM52.2054 51.216V69H46.9134V51.216H52.2054ZM50.7294 43.368C51.7854 43.368 52.3134 43.908 52.3134 44.988V46.896C52.3134 47.976 51.7854 48.516 50.7294 48.516H48.4254C47.3694 48.516 46.8414 47.976 46.8414 46.896V44.988C46.8414 43.908 47.3694 43.368 48.4254 43.368H50.7294ZM65.7906 54.888L71.9106 54.924L62.0826 65.364L55.9626 65.328L65.7906 54.888ZM72.0906 65.328V69H55.9626V65.328H72.0906ZM71.9106 51.216V54.924H56.1066V51.216H71.9106ZM83.9863 50.748C86.9863 50.748 89.1343 51.264 90.4303 52.296C91.7503 53.304 92.4103 54.816 92.4103 56.832C92.4343 58.464 92.0263 59.688 91.1863 60.504C90.3463 61.296 88.8943 61.692 86.8303 61.692H76.8943V58.704H85.3543C86.1703 58.704 86.6863 58.536 86.9023 58.2C87.1423 57.84 87.2623 57.348 87.2623 56.724C87.2383 55.884 86.9863 55.308 86.5063 54.996C86.0503 54.66 85.2703 54.492 84.1663 54.492C83.1823 54.492 82.4143 54.624 81.8623 54.888C81.3103 55.152 80.9263 55.656 80.7103 56.4C80.4943 57.144 80.3863 58.224 80.3863 59.64C80.3863 61.128 80.5183 62.28 80.7823 63.096C81.0463 63.888 81.4903 64.44 82.1143 64.752C82.7623 65.064 83.6503 65.22 84.7783 65.22C85.5943 65.22 86.6023 65.196 87.8023 65.148C89.0263 65.076 90.2503 64.968 91.4743 64.824L91.9783 68.1C91.2823 68.436 90.4903 68.7 89.6023 68.892C88.7143 69.084 87.8023 69.216 86.8663 69.288C85.9303 69.384 85.0303 69.432 84.1663 69.432C81.9103 69.432 80.0863 69.108 78.6943 68.46C77.3263 67.788 76.3303 66.768 75.7063 65.4C75.1063 64.032 74.8063 62.28 74.8063 60.144C74.8063 57.816 75.1183 55.968 75.7423 54.6C76.3663 53.232 77.3503 52.248 78.6943 51.648C80.0383 51.048 81.8023 50.748 83.9863 50.748ZM108.267 50.748C111.627 50.748 113.307 52.392 113.307 55.68V69H107.979V57.336C107.979 56.544 107.835 56.004 107.547 55.716C107.259 55.404 106.767 55.248 106.071 55.248C105.303 55.248 104.511 55.404 103.695 55.716C102.879 56.004 101.871 56.46 100.671 57.084L100.419 54.096C101.691 53.016 102.987 52.188 104.307 51.612C105.651 51.036 106.971 50.748 108.267 50.748ZM100.167 51.216L100.779 54.744L101.211 55.212V69H95.8827V51.216H100.167ZM131.141 44.16V69H125.633V44.16H131.141ZM140.357 53.7V57.84H130.853V53.7H140.357ZM145.469 44.16V69H139.961V44.16H145.469ZM158.624 50.748C160.856 50.748 162.644 51.06 163.988 51.684C165.332 52.284 166.292 53.268 166.868 54.636C167.468 56.004 167.768 57.84 167.768 60.144C167.768 62.4 167.468 64.212 166.868 65.58C166.292 66.948 165.332 67.932 163.988 68.532C162.644 69.132 160.856 69.432 158.624 69.432C156.416 69.432 154.628 69.132 153.26 68.532C151.916 67.932 150.944 66.948 150.344 65.58C149.744 64.212 149.444 62.4 149.444 60.144C149.444 57.84 149.744 56.004 150.344 54.636C150.944 53.268 151.916 52.284 153.26 51.684C154.628 51.06 156.416 50.748 158.624 50.748ZM158.624 54.636C157.712 54.636 156.992 54.792 156.464 55.104C155.936 55.416 155.564 55.968 155.348 56.76C155.132 57.552 155.024 58.68 155.024 60.144C155.024 61.584 155.132 62.7 155.348 63.492C155.564 64.284 155.936 64.836 156.464 65.148C156.992 65.436 157.712 65.58 158.624 65.58C159.536 65.58 160.256 65.436 160.784 65.148C161.312 64.836 161.684 64.284 161.9 63.492C162.116 62.7 162.224 61.584 162.224 60.144C162.224 58.68 162.116 57.552 161.9 56.76C161.684 55.968 161.312 55.416 160.784 55.104C160.256 54.792 159.536 54.636 158.624 54.636ZM193.934 50.748C195.542 50.748 196.766 51.168 197.606 52.008C198.446 52.848 198.866 54.072 198.866 55.68V69H193.574V57.336C193.574 56.592 193.43 56.064 193.142 55.752C192.854 55.416 192.35 55.248 191.63 55.248C191.198 55.248 190.79 55.308 190.406 55.428C190.022 55.548 189.578 55.74 189.074 56.004C188.57 56.268 187.958 56.628 187.238 57.084L186.95 54.132C188.102 53.004 189.23 52.164 190.334 51.612C191.462 51.036 192.662 50.748 193.934 50.748ZM175.646 51.216L176.186 54.744L176.726 55.212V69H171.398V51.216H175.646ZM182.846 50.748C184.43 50.748 185.63 51.168 186.446 52.008C187.286 52.824 187.706 54.048 187.706 55.68V69H182.594V57.336C182.594 56.568 182.426 56.028 182.09 55.716C181.778 55.404 181.286 55.248 180.614 55.248C180.206 55.248 179.798 55.308 179.39 55.428C179.006 55.524 178.55 55.704 178.022 55.968C177.518 56.232 176.894 56.604 176.15 57.084L175.826 54.132C177.002 53.004 178.142 52.164 179.246 51.612C180.35 51.036 181.55 50.748 182.846 50.748ZM211.533 50.748C214.533 50.748 216.681 51.264 217.977 52.296C219.297 53.304 219.957 54.816 219.957 56.832C219.981 58.464 219.573 59.688 218.733 60.504C217.893 61.296 216.441 61.692 214.377 61.692H204.441V58.704H212.901C213.717 58.704 214.233 58.536 214.449 58.2C214.689 57.84 214.809 57.348 214.809 56.724C214.785 55.884 214.533 55.308 214.053 54.996C213.597 54.66 212.817 54.492 211.713 54.492C210.729 54.492 209.961 54.624 209.409 54.888C208.857 55.152 208.473 55.656 208.257 56.4C208.041 57.144 207.933 58.224 207.933 59.64C207.933 61.128 208.065 62.28 208.329 63.096C208.593 63.888 209.037 64.44 209.661 64.752C210.309 65.064 211.197 65.22 212.325 65.22C213.141 65.22 214.149 65.196 215.349 65.148C216.573 65.076 217.797 64.968 219.021 64.824L219.525 68.1C218.829 68.436 218.037 68.7 217.149 68.892C216.261 69.084 215.349 69.216 214.413 69.288C213.477 69.384 212.577 69.432 211.713 69.432C209.457 69.432 207.633 69.108 206.241 68.46C204.873 67.788 203.877 66.768 203.253 65.4C202.653 64.032 202.353 62.28 202.353 60.144C202.353 57.816 202.665 55.968 203.289 54.6C203.913 53.232 204.897 52.248 206.241 51.648C207.585 51.048 209.349 50.748 211.533 50.748Z" fill="black"/>
</svg>
