<svg width="145" height="70" viewBox="0 0 145 70" fill="none" xmlns="http://www.w3.org/2000/svg">
<path d="M40.2485 1.16C41.5445 1.16 42.2165 1.832 42.2645 3.176L43.2005 26H38.1245L37.2965 5.408H36.6485L32.6525 20.888C32.4365 22.04 31.7165 22.616 30.4925 22.616H27.0365C25.8125 22.616 25.0685 22.04 24.8045 20.888L20.8085 5.408H20.1965L19.4405 26H14.3285L15.2645 3.176C15.3125 1.832 15.9965 1.16 17.3165 1.16H22.4645C23.6405 1.16 24.3605 1.748 24.6245 2.924L27.8285 15.416C27.9725 15.992 28.0925 16.58 28.1885 17.18C28.2845 17.756 28.3925 18.344 28.5125 18.944H28.9805C29.1005 18.344 29.2085 17.756 29.3045 17.18C29.4245 16.58 29.5445 15.98 29.6645 15.38L32.8325 2.924C33.0725 1.748 33.7925 1.16 34.9925 1.16H40.2485ZM56.8099 7.748C58.2979 7.748 59.5579 7.952 60.5899 8.36C61.6219 8.744 62.4019 9.416 62.9299 10.376C63.4819 11.312 63.7579 12.608 63.7579 14.264V26H59.5099L58.7539 22.148L58.3939 21.608V14.228C58.3939 13.388 58.1899 12.776 57.7819 12.392C57.3979 12.008 56.6539 11.816 55.5499 11.816C54.6379 11.816 53.4979 11.852 52.1299 11.924C50.7619 11.972 49.3579 12.044 47.9179 12.14L47.4139 8.612C48.2779 8.444 49.2739 8.3 50.4019 8.18C51.5299 8.06 52.6579 7.964 53.7859 7.892C54.9139 7.796 55.9219 7.748 56.8099 7.748ZM61.5619 15.056L61.5259 18.044L53.6059 18.08C52.9579 18.08 52.4899 18.236 52.2019 18.548C51.9379 18.86 51.8059 19.28 51.8059 19.808V20.672C51.8059 21.272 51.9739 21.74 52.3099 22.076C52.6459 22.388 53.1859 22.544 53.9299 22.544C54.5539 22.544 55.2259 22.412 55.9459 22.148C56.6899 21.884 57.4219 21.512 58.1419 21.032C58.8619 20.552 59.4979 19.988 60.0499 19.34V21.644C59.8339 22.004 59.5099 22.46 59.0779 23.012C58.6699 23.54 58.1419 24.068 57.4939 24.596C56.8459 25.1 56.0899 25.532 55.2259 25.892C54.3619 26.252 53.3779 26.432 52.2739 26.432C51.1939 26.432 50.2219 26.24 49.3579 25.856C48.4939 25.472 47.8099 24.908 47.3059 24.164C46.8019 23.42 46.5499 22.496 46.5499 21.392V19.556C46.5499 18.14 47.0299 17.036 47.9899 16.244C48.9499 15.452 50.2699 15.056 51.9499 15.056H61.5619ZM85.6965 8.216L79.3245 26.216C79.0365 27.104 78.6285 27.992 78.1005 28.88C77.5965 29.792 76.9485 30.608 76.1565 31.328C75.3885 32.048 74.4525 32.588 73.3485 32.948C72.2685 33.332 70.9845 33.428 69.4965 33.236L69.1005 30.212C70.5645 29.828 71.7045 29.312 72.5205 28.664C73.3365 28.016 73.9725 27.164 74.4285 26.108L75.5445 23.624C75.7605 23.096 75.9645 22.46 76.1565 21.716C76.3725 20.948 76.5525 20.288 76.6965 19.736L80.0085 8.216H85.6965ZM71.5845 8.216L74.9685 19.736C75.0645 20.192 75.1605 20.648 75.2565 21.104C75.3525 21.56 75.4365 22.016 75.5085 22.472H76.4805L74.7885 26H73.4925C73.0845 26 72.7245 25.88 72.4125 25.64C72.1005 25.4 71.8845 25.088 71.7645 24.704L65.8965 8.216H71.5845ZM93.4152 8.216V19.916C93.4152 20.66 93.5712 21.188 93.8832 21.5C94.2192 21.812 94.7472 21.968 95.4672 21.968C96.2112 21.968 96.9432 21.836 97.6632 21.572C98.4072 21.284 99.3192 20.84 100.399 20.24L100.831 23.156C99.5352 24.284 98.2632 25.124 97.0152 25.676C95.7672 26.228 94.4832 26.504 93.1632 26.504C89.7792 26.504 88.0872 24.848 88.0872 21.536V8.216H93.4152ZM105.187 8.216V26H100.975L100.363 22.508L99.8592 22.004V8.216H105.187ZM113.711 8.216L114.359 11.744L114.863 12.212V26H109.535V8.216H113.711ZM122.387 7.748L121.883 12.68H120.407C119.567 12.68 118.691 12.8 117.779 13.04C116.867 13.28 115.715 13.64 114.323 14.12L113.963 11.132C115.211 10.028 116.471 9.188 117.743 8.612C119.015 8.036 120.251 7.748 121.451 7.748H122.387ZM130.334 8.216V26H125.042V8.216H130.334ZM128.858 0.368C129.914 0.368 130.442 0.907999 130.442 1.988V3.896C130.442 4.976 129.914 5.516 128.858 5.516H126.554C125.498 5.516 124.97 4.976 124.97 3.896V1.988C124.97 0.907999 125.498 0.368 126.554 0.368H128.858ZM11.3681 43.728C12.5441 43.728 13.5401 43.764 14.3561 43.836C15.1961 43.884 15.9641 43.968 16.6601 44.088C17.3561 44.208 18.0761 44.376 18.8201 44.592L18.3881 48.624C17.5961 48.576 16.8641 48.54 16.1921 48.516C15.5441 48.492 14.8361 48.48 14.0681 48.48C13.3241 48.456 12.4241 48.444 11.3681 48.444C10.1441 48.444 9.18406 48.684 8.48806 49.164C7.81606 49.644 7.33606 50.484 7.04806 51.684C6.76006 52.86 6.61606 54.492 6.61606 56.58C6.61606 58.668 6.76006 60.312 7.04806 61.512C7.33606 62.688 7.81606 63.516 8.48806 63.996C9.18406 64.476 10.1441 64.716 11.3681 64.716C13.0241 64.716 14.4161 64.692 15.5441 64.644C16.6721 64.596 17.7881 64.512 18.8921 64.392L19.3601 68.424C18.2081 68.784 17.0321 69.036 15.8321 69.18C14.6321 69.348 13.1441 69.432 11.3681 69.432C8.80006 69.432 6.73606 69.024 5.17606 68.208C3.64006 67.368 2.52406 66.012 1.82806 64.14C1.15606 62.268 0.820063 59.748 0.820063 56.58C0.820063 53.412 1.15606 50.892 1.82806 49.02C2.52406 47.148 3.64006 45.804 5.17606 44.988C6.73606 44.148 8.80006 43.728 11.3681 43.728ZM31.8841 50.748C33.3721 50.748 34.6321 50.952 35.6641 51.36C36.6961 51.744 37.4761 52.416 38.0041 53.376C38.5561 54.312 38.8321 55.608 38.8321 57.264V69H34.5841L33.8281 65.148L33.4681 64.608V57.228C33.4681 56.388 33.2641 55.776 32.8561 55.392C32.4721 55.008 31.7281 54.816 30.6241 54.816C29.7121 54.816 28.5721 54.852 27.2041 54.924C25.8361 54.972 24.4321 55.044 22.9921 55.14L22.4881 51.612C23.3521 51.444 24.3481 51.3 25.4761 51.18C26.6041 51.06 27.7321 50.964 28.8601 50.892C29.9881 50.796 30.9961 50.748 31.8841 50.748ZM36.6361 58.056L36.6001 61.044L28.6801 61.08C28.0321 61.08 27.5641 61.236 27.2761 61.548C27.0121 61.86 26.8801 62.28 26.8801 62.808V63.672C26.8801 64.272 27.0481 64.74 27.3841 65.076C27.7201 65.388 28.2601 65.544 29.0041 65.544C29.6281 65.544 30.3001 65.412 31.0201 65.148C31.7641 64.884 32.4961 64.512 33.2161 64.032C33.9361 63.552 34.5721 62.988 35.1241 62.34V64.644C34.9081 65.004 34.5841 65.46 34.1521 66.012C33.7441 66.54 33.2161 67.068 32.5681 67.596C31.9201 68.1 31.1641 68.532 30.3001 68.892C29.4361 69.252 28.4521 69.432 27.3481 69.432C26.2681 69.432 25.2961 69.24 24.4321 68.856C23.5681 68.472 22.8841 67.908 22.3801 67.164C21.8761 66.42 21.6241 65.496 21.6241 64.392V62.556C21.6241 61.14 22.1041 60.036 23.0641 59.244C24.0241 58.452 25.3441 58.056 27.0241 58.056H36.6361ZM49.9674 46.284V63.312C49.9674 63.96 50.1114 64.428 50.3994 64.716C50.7114 64.98 51.2154 65.112 51.9114 65.112H54.2154L54.7914 68.712C54.3594 68.856 53.8314 68.976 53.2074 69.072C52.5834 69.192 51.9594 69.276 51.3354 69.324C50.7114 69.396 50.1834 69.432 49.7514 69.432C48.1434 69.432 46.8834 69 45.9714 68.136C45.0834 67.272 44.6394 66.06 44.6394 64.5L44.6034 46.284H49.9674ZM54.9354 51.216V54.708H41.5074V51.396L44.9634 51.216H54.9354ZM66.209 50.748C69.209 50.748 71.357 51.264 72.653 52.296C73.973 53.304 74.633 54.816 74.633 56.832C74.657 58.464 74.249 59.688 73.409 60.504C72.569 61.296 71.117 61.692 69.053 61.692H59.117V58.704H67.577C68.393 58.704 68.909 58.536 69.125 58.2C69.365 57.84 69.485 57.348 69.485 56.724C69.461 55.884 69.209 55.308 68.729 54.996C68.273 54.66 67.493 54.492 66.389 54.492C65.405 54.492 64.637 54.624 64.085 54.888C63.533 55.152 63.149 55.656 62.933 56.4C62.717 57.144 62.609 58.224 62.609 59.64C62.609 61.128 62.741 62.28 63.005 63.096C63.269 63.888 63.713 64.44 64.337 64.752C64.985 65.064 65.873 65.22 67.001 65.22C67.817 65.22 68.825 65.196 70.025 65.148C71.249 65.076 72.473 64.968 73.697 64.824L74.201 68.1C73.505 68.436 72.713 68.7 71.825 68.892C70.937 69.084 70.025 69.216 69.089 69.288C68.153 69.384 67.253 69.432 66.389 69.432C64.133 69.432 62.309 69.108 60.917 68.46C59.549 67.788 58.553 66.768 57.929 65.4C57.329 64.032 57.029 62.28 57.029 60.144C57.029 57.816 57.341 55.968 57.965 54.6C58.589 53.232 59.573 52.248 60.917 51.648C62.261 51.048 64.025 50.748 66.209 50.748ZM82.2813 51.216L82.9293 54.744L83.4333 55.212V69H78.1053V51.216H82.2813ZM90.9573 50.748L90.4533 55.68H88.9773C88.1373 55.68 87.2613 55.8 86.3493 56.04C85.4373 56.28 84.2853 56.64 82.8933 57.12L82.5333 54.132C83.7813 53.028 85.0413 52.188 86.3133 51.612C87.5853 51.036 88.8213 50.748 90.0213 50.748H90.9573ZM101.611 50.748C104.611 50.748 106.759 51.264 108.055 52.296C109.375 53.304 110.035 54.816 110.035 56.832C110.059 58.464 109.651 59.688 108.811 60.504C107.971 61.296 106.519 61.692 104.455 61.692H94.5193V58.704H102.979C103.795 58.704 104.311 58.536 104.527 58.2C104.767 57.84 104.887 57.348 104.887 56.724C104.863 55.884 104.611 55.308 104.131 54.996C103.675 54.66 102.895 54.492 101.791 54.492C100.807 54.492 100.039 54.624 99.4873 54.888C98.9353 55.152 98.5513 55.656 98.3353 56.4C98.1193 57.144 98.0113 58.224 98.0113 59.64C98.0113 61.128 98.1433 62.28 98.4073 63.096C98.6713 63.888 99.1153 64.44 99.7393 64.752C100.387 65.064 101.275 65.22 102.403 65.22C103.219 65.22 104.227 65.196 105.427 65.148C106.651 65.076 107.875 64.968 109.099 64.824L109.603 68.1C108.907 68.436 108.115 68.7 107.227 68.892C106.339 69.084 105.427 69.216 104.491 69.288C103.555 69.384 102.655 69.432 101.791 69.432C99.5353 69.432 97.7113 69.108 96.3193 68.46C94.9513 67.788 93.9553 66.768 93.3313 65.4C92.7313 64.032 92.4313 62.28 92.4313 60.144C92.4313 57.816 92.7433 55.968 93.3673 54.6C93.9913 53.232 94.9753 52.248 96.3193 51.648C97.6633 51.048 99.4273 50.748 101.611 50.748ZM117.684 51.216L118.332 54.744L118.836 55.212V69H113.508V51.216H117.684ZM126.36 50.748L125.856 55.68H124.38C123.54 55.68 122.664 55.8 121.752 56.04C120.84 56.28 119.688 56.64 118.296 57.12L117.936 54.132C119.184 53.028 120.444 52.188 121.716 51.612C122.988 51.036 124.224 50.748 125.424 50.748H126.36ZM135.639 50.748C136.503 50.748 137.439 50.784 138.447 50.856C139.455 50.904 140.439 50.976 141.399 51.072C142.359 51.168 143.211 51.288 143.955 51.432L143.595 54.744C142.443 54.72 141.279 54.708 140.103 54.708C138.951 54.684 137.823 54.672 136.719 54.672C135.783 54.648 135.063 54.66 134.559 54.708C134.055 54.756 133.695 54.876 133.479 55.068C133.287 55.236 133.191 55.548 133.191 56.004C133.191 56.532 133.371 56.892 133.731 57.084C134.091 57.252 134.691 57.444 135.531 57.66L140.175 58.776C141.663 59.16 142.767 59.736 143.487 60.504C144.207 61.248 144.567 62.376 144.567 63.888C144.567 65.376 144.291 66.516 143.739 67.308C143.187 68.1 142.311 68.652 141.111 68.964C139.911 69.252 138.363 69.396 136.467 69.396C135.723 69.396 134.619 69.36 133.155 69.288C131.691 69.216 130.083 69.036 128.331 68.748L128.691 65.436C129.123 65.46 129.675 65.484 130.347 65.508C131.019 65.508 131.751 65.508 132.543 65.508C133.335 65.508 134.127 65.508 134.919 65.508C136.143 65.508 137.079 65.484 137.727 65.436C138.375 65.364 138.819 65.22 139.059 65.004C139.299 64.788 139.419 64.464 139.419 64.032C139.419 63.504 139.215 63.144 138.807 62.952C138.399 62.76 137.751 62.556 136.863 62.34L132.363 61.224C131.235 60.912 130.359 60.516 129.735 60.036C129.111 59.556 128.667 58.968 128.403 58.272C128.163 57.576 128.043 56.748 128.043 55.788C128.043 54.564 128.283 53.592 128.763 52.872C129.267 52.128 130.071 51.588 131.175 51.252C132.303 50.916 133.791 50.748 135.639 50.748Z" fill="black"/>
</svg>
