<svg width="196" height="70" viewBox="0 0 196 70" fill="none" xmlns="http://www.w3.org/2000/svg">
<path d="M26.7602 1.16C28.0562 1.16 28.7282 1.832 28.7762 3.176L29.7122 26H24.6362L23.8082 5.408H23.1602L19.1642 20.888C18.9482 22.04 18.2282 22.616 17.0042 22.616H13.5482C12.3242 22.616 11.5802 22.04 11.3162 20.888L7.32022 5.408H6.70822L5.95222 26H0.840219L1.77622 3.176C1.82422 1.832 2.50822 1.16 3.82822 1.16H8.97622C10.1522 1.16 10.8722 1.748 11.1362 2.924L14.3402 15.416C14.4842 15.992 14.6042 16.58 14.7002 17.18C14.7962 17.756 14.9042 18.344 15.0242 18.944H15.4922C15.6122 18.344 15.7202 17.756 15.8162 17.18C15.9362 16.58 16.0562 15.98 16.1762 15.38L19.3442 2.924C19.5842 1.748 20.3042 1.16 21.5042 1.16H26.7602ZM43.3216 7.748C44.8096 7.748 46.0696 7.952 47.1016 8.36C48.1336 8.744 48.9136 9.416 49.4416 10.376C49.9936 11.312 50.2696 12.608 50.2696 14.264V26H46.0216L45.2656 22.148L44.9056 21.608V14.228C44.9056 13.388 44.7016 12.776 44.2936 12.392C43.9096 12.008 43.1656 11.816 42.0616 11.816C41.1496 11.816 40.0096 11.852 38.6416 11.924C37.2736 11.972 35.8696 12.044 34.4296 12.14L33.9256 8.612C34.7896 8.444 35.7856 8.3 36.9136 8.18C38.0416 8.06 39.1696 7.964 40.2976 7.892C41.4256 7.796 42.4336 7.748 43.3216 7.748ZM48.0736 15.056L48.0376 18.044L40.1176 18.08C39.4696 18.08 39.0016 18.236 38.7136 18.548C38.4496 18.86 38.3176 19.28 38.3176 19.808V20.672C38.3176 21.272 38.4856 21.74 38.8216 22.076C39.1576 22.388 39.6976 22.544 40.4416 22.544C41.0656 22.544 41.7376 22.412 42.4576 22.148C43.2016 21.884 43.9336 21.512 44.6536 21.032C45.3736 20.552 46.0096 19.988 46.5616 19.34V21.644C46.3456 22.004 46.0216 22.46 45.5896 23.012C45.1816 23.54 44.6536 24.068 44.0056 24.596C43.3576 25.1 42.6016 25.532 41.7376 25.892C40.8736 26.252 39.8896 26.432 38.7856 26.432C37.7056 26.432 36.7336 26.24 35.8696 25.856C35.0056 25.472 34.3216 24.908 33.8176 24.164C33.3136 23.42 33.0616 22.496 33.0616 21.392V19.556C33.0616 18.14 33.5416 17.036 34.5016 16.244C35.4616 15.452 36.7816 15.056 38.4616 15.056H48.0736ZM63.8529 7.748C65.3409 7.748 66.6009 7.952 67.6329 8.36C68.6649 8.744 69.4449 9.416 69.9729 10.376C70.5249 11.312 70.8009 12.608 70.8009 14.264V26H66.5529L65.7969 22.148L65.4369 21.608V14.228C65.4369 13.388 65.2329 12.776 64.8249 12.392C64.4409 12.008 63.6969 11.816 62.5929 11.816C61.6809 11.816 60.5409 11.852 59.1729 11.924C57.8049 11.972 56.4009 12.044 54.9609 12.14L54.4569 8.612C55.3209 8.444 56.3169 8.3 57.4449 8.18C58.5729 8.06 59.7009 7.964 60.8289 7.892C61.9569 7.796 62.9649 7.748 63.8529 7.748ZM68.6049 15.056L68.5689 18.044L60.6489 18.08C60.0009 18.08 59.5329 18.236 59.2449 18.548C58.9809 18.86 58.8489 19.28 58.8489 19.808V20.672C58.8489 21.272 59.0169 21.74 59.3529 22.076C59.6889 22.388 60.2289 22.544 60.9729 22.544C61.5969 22.544 62.2689 22.412 62.9889 22.148C63.7329 21.884 64.4649 21.512 65.1849 21.032C65.9049 20.552 66.5409 19.988 67.0929 19.34V21.644C66.8769 22.004 66.5529 22.46 66.1209 23.012C65.7129 23.54 65.1849 24.068 64.5369 24.596C63.8889 25.1 63.1329 25.532 62.2689 25.892C61.4049 26.252 60.4209 26.432 59.3169 26.432C58.2369 26.432 57.2649 26.24 56.4009 25.856C55.5369 25.472 54.8529 24.908 54.3489 24.164C53.8449 23.42 53.5929 22.496 53.5929 21.392V19.556C53.5929 18.14 54.0729 17.036 55.0329 16.244C55.9929 15.452 57.3129 15.056 58.9929 15.056H68.6049ZM87.3721 7.748C90.7321 7.748 92.4121 9.392 92.4121 12.68V26H87.0841V14.336C87.0841 13.544 86.9401 13.004 86.6521 12.716C86.3641 12.404 85.8721 12.248 85.1761 12.248C84.4081 12.248 83.6161 12.404 82.8001 12.716C81.9841 13.004 80.9761 13.46 79.7761 14.084L79.5241 11.096C80.7961 10.016 82.0921 9.188 83.4121 8.612C84.7561 8.036 86.0761 7.748 87.3721 7.748ZM79.2721 8.216L79.8841 11.744L80.3161 12.212V26H74.9881V8.216H79.2721ZM101.829 8.216V19.916C101.829 20.66 101.985 21.188 102.297 21.5C102.633 21.812 103.161 21.968 103.881 21.968C104.625 21.968 105.357 21.836 106.077 21.572C106.821 21.284 107.733 20.84 108.813 20.24L109.245 23.156C107.949 24.284 106.677 25.124 105.429 25.676C104.181 26.228 102.897 26.504 101.577 26.504C98.1932 26.504 96.5012 24.848 96.5012 21.536V8.216H101.829ZM113.601 8.216V26H109.389L108.777 22.508L108.273 22.004V8.216H113.601ZM124.717 7.748C125.581 7.748 126.517 7.784 127.525 7.856C128.533 7.904 129.517 7.976 130.477 8.072C131.437 8.168 132.289 8.288 133.033 8.432L132.673 11.744C131.521 11.72 130.357 11.708 129.181 11.708C128.029 11.684 126.901 11.672 125.797 11.672C124.861 11.648 124.141 11.66 123.637 11.708C123.133 11.756 122.773 11.876 122.557 12.068C122.365 12.236 122.269 12.548 122.269 13.004C122.269 13.532 122.449 13.892 122.809 14.084C123.169 14.252 123.769 14.444 124.609 14.66L129.253 15.776C130.741 16.16 131.845 16.736 132.565 17.504C133.285 18.248 133.645 19.376 133.645 20.888C133.645 22.376 133.369 23.516 132.817 24.308C132.265 25.1 131.389 25.652 130.189 25.964C128.989 26.252 127.441 26.396 125.545 26.396C124.801 26.396 123.697 26.36 122.233 26.288C120.769 26.216 119.161 26.036 117.409 25.748L117.769 22.436C118.201 22.46 118.753 22.484 119.425 22.508C120.097 22.508 120.829 22.508 121.621 22.508C122.413 22.508 123.205 22.508 123.997 22.508C125.221 22.508 126.157 22.484 126.805 22.436C127.453 22.364 127.897 22.22 128.137 22.004C128.377 21.788 128.497 21.464 128.497 21.032C128.497 20.504 128.293 20.144 127.885 19.952C127.477 19.76 126.829 19.556 125.941 19.34L121.441 18.224C120.313 17.912 119.437 17.516 118.813 17.036C118.189 16.556 117.745 15.968 117.481 15.272C117.241 14.576 117.121 13.748 117.121 12.788C117.121 11.564 117.361 10.592 117.841 9.872C118.345 9.128 119.149 8.588 120.253 8.252C121.381 7.916 122.869 7.748 124.717 7.748ZM149.458 7.748C152.818 7.748 154.498 9.392 154.498 12.68V26H149.134V14.336C149.134 13.544 148.99 13.004 148.702 12.716C148.438 12.404 147.958 12.248 147.262 12.248C146.494 12.248 145.702 12.392 144.886 12.68C144.07 12.968 143.062 13.436 141.862 14.084L141.394 11.312C142.714 10.16 144.058 9.284 145.426 8.684C146.794 8.06 148.138 7.748 149.458 7.748ZM142.402 0.799998L142.438 6.956C142.438 7.892 142.378 8.78 142.258 9.62C142.162 10.46 142.042 11.168 141.898 11.744L142.402 12.212V26H137.074V0.799998H142.402ZM176.587 8.216L170.215 26.216C169.927 27.104 169.519 27.992 168.991 28.88C168.487 29.792 167.839 30.608 167.047 31.328C166.279 32.048 165.343 32.588 164.239 32.948C163.159 33.332 161.875 33.428 160.387 33.236L159.991 30.212C161.455 29.828 162.595 29.312 163.411 28.664C164.227 28.016 164.863 27.164 165.319 26.108L166.435 23.624C166.651 23.096 166.855 22.46 167.047 21.716C167.263 20.948 167.443 20.288 167.587 19.736L170.899 8.216H176.587ZM162.475 8.216L165.859 19.736C165.955 20.192 166.051 20.648 166.147 21.104C166.243 21.56 166.327 22.016 166.399 22.472H167.371L165.679 26H164.383C163.975 26 163.615 25.88 163.303 25.64C162.991 25.4 162.775 25.088 162.655 24.704L156.787 8.216H162.475ZM188.201 7.748C189.689 7.748 190.949 7.952 191.981 8.36C193.013 8.744 193.793 9.416 194.321 10.376C194.873 11.312 195.149 12.608 195.149 14.264V26H190.901L190.145 22.148L189.785 21.608V14.228C189.785 13.388 189.581 12.776 189.173 12.392C188.789 12.008 188.045 11.816 186.941 11.816C186.029 11.816 184.889 11.852 183.521 11.924C182.153 11.972 180.749 12.044 179.309 12.14L178.805 8.612C179.669 8.444 180.665 8.3 181.793 8.18C182.921 8.06 184.049 7.964 185.177 7.892C186.305 7.796 187.313 7.748 188.201 7.748ZM192.953 15.056L192.917 18.044L184.997 18.08C184.349 18.08 183.881 18.236 183.593 18.548C183.329 18.86 183.197 19.28 183.197 19.808V20.672C183.197 21.272 183.365 21.74 183.701 22.076C184.037 22.388 184.577 22.544 185.321 22.544C185.945 22.544 186.617 22.412 187.337 22.148C188.081 21.884 188.813 21.512 189.533 21.032C190.253 20.552 190.889 19.988 191.441 19.34V21.644C191.225 22.004 190.901 22.46 190.469 23.012C190.061 23.54 189.533 24.068 188.885 24.596C188.237 25.1 187.481 25.532 186.617 25.892C185.753 26.252 184.769 26.432 183.665 26.432C182.585 26.432 181.613 26.24 180.749 25.856C179.885 25.472 179.201 24.908 178.697 24.164C178.193 23.42 177.941 22.496 177.941 21.392V19.556C177.941 18.14 178.421 17.036 179.381 16.244C180.341 15.452 181.661 15.056 183.341 15.056H192.953ZM9.14905 44.052C10.421 44.052 11.717 44.064 13.037 44.088C14.381 44.088 15.689 44.124 16.961 44.196C18.257 44.244 19.457 44.328 20.561 44.448L20.273 48.408H11.273C10.625 48.408 10.133 48.564 9.79705 48.876C9.46105 49.188 9.29305 49.644 9.29305 50.244V69H3.78505V49.128C3.78505 47.592 4.27705 46.368 5.26105 45.456C6.24505 44.52 7.54105 44.052 9.14905 44.052ZM4.43305 54.564H18.941V58.452H4.43305V54.564ZM31.4696 50.748C33.7016 50.748 35.4896 51.06 36.8336 51.684C38.1776 52.284 39.1376 53.268 39.7136 54.636C40.3136 56.004 40.6136 57.84 40.6136 60.144C40.6136 62.4 40.3136 64.212 39.7136 65.58C39.1376 66.948 38.1776 67.932 36.8336 68.532C35.4896 69.132 33.7016 69.432 31.4696 69.432C29.2616 69.432 27.4736 69.132 26.1056 68.532C24.7616 67.932 23.7896 66.948 23.1896 65.58C22.5896 64.212 22.2896 62.4 22.2896 60.144C22.2896 57.84 22.5896 56.004 23.1896 54.636C23.7896 53.268 24.7616 52.284 26.1056 51.684C27.4736 51.06 29.2616 50.748 31.4696 50.748ZM31.4696 54.636C30.5576 54.636 29.8376 54.792 29.3096 55.104C28.7816 55.416 28.4096 55.968 28.1936 56.76C27.9776 57.552 27.8696 58.68 27.8696 60.144C27.8696 61.584 27.9776 62.7 28.1936 63.492C28.4096 64.284 28.7816 64.836 29.3096 65.148C29.8376 65.436 30.5576 65.58 31.4696 65.58C32.3816 65.58 33.1016 65.436 33.6296 65.148C34.1576 64.836 34.5296 64.284 34.7456 63.492C34.9616 62.7 35.0696 61.584 35.0696 60.144C35.0696 58.68 34.9616 57.552 34.7456 56.76C34.5296 55.968 34.1576 55.416 33.6296 55.104C33.1016 54.792 32.3816 54.636 31.4696 54.636ZM49.464 51.216V62.916C49.464 63.66 49.62 64.188 49.932 64.5C50.268 64.812 50.796 64.968 51.516 64.968C52.26 64.968 52.992 64.836 53.712 64.572C54.456 64.284 55.368 63.84 56.448 63.24L56.88 66.156C55.584 67.284 54.312 68.124 53.064 68.676C51.816 69.228 50.532 69.504 49.212 69.504C45.828 69.504 44.136 67.848 44.136 64.536V51.216H49.464ZM61.236 51.216V69H57.024L56.412 65.508L55.908 65.004V51.216H61.236ZM77.9678 50.748C81.3278 50.748 83.0078 52.392 83.0078 55.68V69H77.6798V57.336C77.6798 56.544 77.5358 56.004 77.2478 55.716C76.9598 55.404 76.4678 55.248 75.7718 55.248C75.0038 55.248 74.2118 55.404 73.3958 55.716C72.5798 56.004 71.5718 56.46 70.3718 57.084L70.1198 54.096C71.3918 53.016 72.6878 52.188 74.0078 51.612C75.3518 51.036 76.6718 50.748 77.9678 50.748ZM69.8678 51.216L70.4798 54.744L70.9118 55.212V69H65.5838V51.216H69.8678ZM93.2889 50.748C94.5369 50.748 95.7369 50.928 96.8889 51.288C98.0649 51.648 99.0969 52.236 99.9849 53.052L99.6249 55.5C98.8089 55.26 98.0769 55.044 97.4289 54.852C96.7809 54.66 96.0249 54.564 95.1609 54.564C94.4169 54.564 93.8169 54.696 93.3609 54.96C92.9049 55.224 92.5689 55.74 92.3529 56.508C92.1369 57.276 92.0289 58.416 92.0289 59.928C92.0289 61.344 92.1249 62.424 92.3169 63.168C92.5329 63.888 92.8569 64.392 93.2889 64.68C93.7449 64.944 94.3209 65.076 95.0169 65.076C95.6409 65.076 96.1809 65.016 96.6369 64.896C97.0929 64.752 97.5489 64.548 98.0049 64.284C98.4609 63.996 98.9769 63.648 99.5529 63.24L99.9489 65.868C99.2289 66.876 98.2929 67.728 97.1409 68.424C95.9889 69.096 94.5729 69.432 92.8929 69.432C90.6129 69.432 88.9809 68.616 87.9969 66.984C87.0369 65.352 86.5569 63.012 86.5569 59.964C86.5569 57.588 86.7969 55.74 87.2769 54.42C87.7809 53.076 88.5369 52.128 89.5449 51.576C90.5529 51.024 91.8009 50.748 93.2889 50.748ZM104.341 43.8V69H100.129L99.5889 65.724L99.0129 65.328V53.664L99.2289 53.196C99.1569 52.452 99.0969 51.708 99.0489 50.964C99.0249 50.196 99.0129 49.416 99.0129 48.624V43.8H104.341ZM118.081 50.748C119.569 50.748 120.829 50.952 121.861 51.36C122.893 51.744 123.673 52.416 124.201 53.376C124.753 54.312 125.029 55.608 125.029 57.264V69H120.781L120.025 65.148L119.665 64.608V57.228C119.665 56.388 119.461 55.776 119.053 55.392C118.669 55.008 117.925 54.816 116.821 54.816C115.909 54.816 114.769 54.852 113.401 54.924C112.033 54.972 110.629 55.044 109.189 55.14L108.685 51.612C109.549 51.444 110.545 51.3 111.673 51.18C112.801 51.06 113.929 50.964 115.057 50.892C116.185 50.796 117.193 50.748 118.081 50.748ZM122.833 58.056L122.797 61.044L114.877 61.08C114.229 61.08 113.761 61.236 113.473 61.548C113.209 61.86 113.077 62.28 113.077 62.808V63.672C113.077 64.272 113.245 64.74 113.581 65.076C113.917 65.388 114.457 65.544 115.201 65.544C115.825 65.544 116.497 65.412 117.217 65.148C117.961 64.884 118.693 64.512 119.413 64.032C120.133 63.552 120.769 62.988 121.321 62.34V64.644C121.105 65.004 120.781 65.46 120.349 66.012C119.941 66.54 119.413 67.068 118.765 67.596C118.117 68.1 117.361 68.532 116.497 68.892C115.633 69.252 114.649 69.432 113.545 69.432C112.465 69.432 111.493 69.24 110.629 68.856C109.765 68.472 109.081 67.908 108.577 67.164C108.073 66.42 107.821 65.496 107.821 64.392V62.556C107.821 61.14 108.301 60.036 109.261 59.244C110.221 58.452 111.541 58.056 113.221 58.056H122.833ZM136.165 46.284V63.312C136.165 63.96 136.309 64.428 136.597 64.716C136.909 64.98 137.413 65.112 138.109 65.112H140.413L140.989 68.712C140.557 68.856 140.029 68.976 139.405 69.072C138.781 69.192 138.157 69.276 137.533 69.324C136.909 69.396 136.381 69.432 135.949 69.432C134.341 69.432 133.081 69 132.169 68.136C131.281 67.272 130.837 66.06 130.837 64.5L130.801 46.284H136.165ZM141.133 51.216V54.708H127.705V51.396L131.161 51.216H141.133ZM149.418 51.216V69H144.126V51.216H149.418ZM147.942 43.368C148.998 43.368 149.526 43.908 149.526 44.988V46.896C149.526 47.976 148.998 48.516 147.942 48.516H145.638C144.582 48.516 144.054 47.976 144.054 46.896V44.988C144.054 43.908 144.582 43.368 145.638 43.368H147.942ZM162.391 50.748C164.623 50.748 166.411 51.06 167.755 51.684C169.099 52.284 170.059 53.268 170.635 54.636C171.235 56.004 171.535 57.84 171.535 60.144C171.535 62.4 171.235 64.212 170.635 65.58C170.059 66.948 169.099 67.932 167.755 68.532C166.411 69.132 164.623 69.432 162.391 69.432C160.183 69.432 158.395 69.132 157.027 68.532C155.683 67.932 154.711 66.948 154.111 65.58C153.511 64.212 153.211 62.4 153.211 60.144C153.211 57.84 153.511 56.004 154.111 54.636C154.711 53.268 155.683 52.284 157.027 51.684C158.395 51.06 160.183 50.748 162.391 50.748ZM162.391 54.636C161.479 54.636 160.759 54.792 160.231 55.104C159.703 55.416 159.331 55.968 159.115 56.76C158.899 57.552 158.791 58.68 158.791 60.144C158.791 61.584 158.899 62.7 159.115 63.492C159.331 64.284 159.703 64.836 160.231 65.148C160.759 65.436 161.479 65.58 162.391 65.58C163.303 65.58 164.023 65.436 164.551 65.148C165.079 64.836 165.451 64.284 165.667 63.492C165.883 62.7 165.991 61.584 165.991 60.144C165.991 58.68 165.883 57.552 165.667 56.76C165.451 55.968 165.079 55.416 164.551 55.104C164.023 54.792 163.303 54.636 162.391 54.636ZM187.55 50.748C190.91 50.748 192.59 52.392 192.59 55.68V69H187.262V57.336C187.262 56.544 187.118 56.004 186.83 55.716C186.542 55.404 186.05 55.248 185.354 55.248C184.586 55.248 183.794 55.404 182.978 55.716C182.162 56.004 181.154 56.46 179.954 57.084L179.702 54.096C180.974 53.016 182.27 52.188 183.59 51.612C184.934 51.036 186.254 50.748 187.55 50.748ZM179.45 51.216L180.062 54.744L180.494 55.212V69H175.166V51.216H179.45Z" fill="black"/>
</svg>
