<svg width="177" height="77" viewBox="0 0 177 77" fill="none" xmlns="http://www.w3.org/2000/svg">
<path d="M21.5158 1.16V24.02C21.5158 25.34 20.8558 26 19.5358 26H16.5118C15.9118 26 15.4558 25.868 15.1438 25.604C14.8318 25.316 14.5438 24.896 14.2798 24.344L7.40381 11.312C7.11581 10.76 6.82781 10.148 6.53981 9.476C6.27581 8.804 6.04781 8.156 5.85581 7.532H5.45981C5.53181 8.18 5.59181 8.84 5.63981 9.512C5.68781 10.16 5.71181 10.808 5.71181 11.456V26H0.491813V3.14C0.491813 1.82 1.16381 1.16 2.50781 1.16H5.49581C6.07181 1.16 6.50381 1.304 6.79181 1.592C7.10381 1.856 7.40381 2.264 7.69181 2.816L14.3518 15.452C14.6398 16.004 14.9398 16.616 15.2518 17.288C15.5638 17.96 15.8638 18.656 16.1518 19.376H16.5838C16.5118 18.656 16.4518 17.96 16.4038 17.288C16.3798 16.592 16.3678 15.908 16.3678 15.236L16.3318 1.16H21.5158ZM31.5843 8.216V26H26.2923V8.216H31.5843ZM30.1083 0.368C31.1643 0.368 31.6923 0.907999 31.6923 1.988V3.896C31.6923 4.976 31.1643 5.516 30.1083 5.516H27.8043C26.7483 5.516 26.2203 4.976 26.2203 3.896V1.988C26.2203 0.907999 26.7483 0.368 27.8043 0.368H30.1083ZM43.0455 3.284V20.312C43.0455 20.96 43.1895 21.428 43.4775 21.716C43.7895 21.98 44.2935 22.112 44.9895 22.112H47.2935L47.8695 25.712C47.4375 25.856 46.9095 25.976 46.2855 26.072C45.6615 26.192 45.0375 26.276 44.4135 26.324C43.7895 26.396 43.2615 26.432 42.8295 26.432C41.2215 26.432 39.9615 26 39.0495 25.136C38.1615 24.272 37.7175 23.06 37.7175 21.5L37.6815 3.284H43.0455ZM48.0135 8.216V11.708H34.5855V8.396L38.0415 8.216H48.0135ZM68.7551 8.216L62.3831 26.216C62.0951 27.104 61.6871 27.992 61.1591 28.88C60.6551 29.792 60.0071 30.608 59.2151 31.328C58.4471 32.048 57.5111 32.588 56.4071 32.948C55.3271 33.332 54.0431 33.428 52.5551 33.236L52.1591 30.212C53.6231 29.828 54.7631 29.312 55.5791 28.664C56.3951 28.016 57.0311 27.164 57.4871 26.108L58.6031 23.624C58.8191 23.096 59.0231 22.46 59.2151 21.716C59.4311 20.948 59.6111 20.288 59.7551 19.736L63.0671 8.216H68.7551ZM54.6431 8.216L58.0271 19.736C58.1231 20.192 58.2191 20.648 58.3151 21.104C58.4111 21.56 58.4951 22.016 58.5671 22.472H59.5391L57.8471 26H56.5511C56.1431 26 55.7831 25.88 55.4711 25.64C55.1591 25.4 54.9431 25.088 54.8231 24.704L48.9551 8.216H54.6431ZM80.3685 7.748C81.8565 7.748 83.1165 7.952 84.1485 8.36C85.1805 8.744 85.9605 9.416 86.4885 10.376C87.0405 11.312 87.3165 12.608 87.3165 14.264V26H83.0685L82.3125 22.148L81.9525 21.608V14.228C81.9525 13.388 81.7485 12.776 81.3405 12.392C80.9565 12.008 80.2125 11.816 79.1085 11.816C78.1965 11.816 77.0565 11.852 75.6885 11.924C74.3205 11.972 72.9165 12.044 71.4765 12.14L70.9725 8.612C71.8365 8.444 72.8325 8.3 73.9605 8.18C75.0885 8.06 76.2165 7.964 77.3445 7.892C78.4725 7.796 79.4805 7.748 80.3685 7.748ZM85.1205 15.056L85.0845 18.044L77.1645 18.08C76.5165 18.08 76.0485 18.236 75.7605 18.548C75.4965 18.86 75.3645 19.28 75.3645 19.808V20.672C75.3645 21.272 75.5325 21.74 75.8685 22.076C76.2045 22.388 76.7445 22.544 77.4885 22.544C78.1125 22.544 78.7845 22.412 79.5045 22.148C80.2485 21.884 80.9805 21.512 81.7005 21.032C82.4205 20.552 83.0565 19.988 83.6085 19.34V21.644C83.3925 22.004 83.0685 22.46 82.6365 23.012C82.2285 23.54 81.7005 24.068 81.0525 24.596C80.4045 25.1 79.6485 25.532 78.7845 25.892C77.9205 26.252 76.9365 26.432 75.8325 26.432C74.7525 26.432 73.7805 26.24 72.9165 25.856C72.0525 25.472 71.3685 24.908 70.8645 24.164C70.3605 23.42 70.1085 22.496 70.1085 21.392V19.556C70.1085 18.14 70.5885 17.036 71.5485 16.244C72.5085 15.452 73.8285 15.056 75.5085 15.056H85.1205ZM107.805 0.692C109.029 0.692 110.361 0.763999 111.801 0.907999C113.241 1.028 114.645 1.292 116.013 1.7L115.653 5.336C114.597 5.312 113.361 5.288 111.945 5.264C110.529 5.24 109.137 5.228 107.769 5.228C107.097 5.228 106.521 5.252 106.041 5.3C105.585 5.324 105.213 5.42 104.925 5.588C104.637 5.732 104.433 5.96 104.313 6.272C104.193 6.584 104.133 7.016 104.133 7.568C104.133 8.408 104.325 9.02 104.709 9.404C105.117 9.788 105.801 10.136 106.761 10.448L111.549 11.996C113.541 12.668 114.921 13.58 115.689 14.732C116.457 15.884 116.841 17.396 116.841 19.268C116.841 20.684 116.673 21.86 116.337 22.796C116.001 23.732 115.473 24.464 114.753 24.992C114.033 25.52 113.085 25.892 111.909 26.108C110.733 26.348 109.293 26.468 107.589 26.468C106.773 26.468 105.609 26.408 104.097 26.288C102.585 26.192 100.857 25.928 98.9133 25.496L99.2733 21.608C100.689 21.632 101.913 21.668 102.945 21.716C104.001 21.74 104.901 21.764 105.645 21.788C106.389 21.788 107.037 21.788 107.589 21.788C108.549 21.788 109.293 21.728 109.821 21.608C110.373 21.488 110.757 21.248 110.973 20.888C111.189 20.528 111.297 20.012 111.297 19.34C111.297 18.764 111.213 18.308 111.045 17.972C110.901 17.612 110.649 17.336 110.289 17.144C109.953 16.928 109.485 16.736 108.885 16.568L103.845 14.84C101.949 14.144 100.605 13.232 99.8133 12.104C99.0213 10.976 98.6253 9.488 98.6253 7.64C98.6253 6.2 98.7933 5.036 99.1293 4.148C99.4893 3.236 100.029 2.528 100.749 2.024C101.493 1.52 102.441 1.172 103.593 0.979998C104.769 0.787999 106.173 0.692 107.805 0.692ZM128.791 7.748C131.791 7.748 133.939 8.264 135.235 9.296C136.555 10.304 137.215 11.816 137.215 13.832C137.239 15.464 136.831 16.688 135.991 17.504C135.151 18.296 133.699 18.692 131.635 18.692H121.699V15.704H130.159C130.975 15.704 131.491 15.536 131.707 15.2C131.947 14.84 132.067 14.348 132.067 13.724C132.043 12.884 131.791 12.308 131.311 11.996C130.855 11.66 130.075 11.492 128.971 11.492C127.987 11.492 127.219 11.624 126.667 11.888C126.115 12.152 125.731 12.656 125.515 13.4C125.299 14.144 125.191 15.224 125.191 16.64C125.191 18.128 125.323 19.28 125.587 20.096C125.851 20.888 126.295 21.44 126.919 21.752C127.567 22.064 128.455 22.22 129.583 22.22C130.399 22.22 131.407 22.196 132.607 22.148C133.831 22.076 135.055 21.968 136.279 21.824L136.783 25.1C136.087 25.436 135.295 25.7 134.407 25.892C133.519 26.084 132.607 26.216 131.671 26.288C130.735 26.384 129.835 26.432 128.971 26.432C126.715 26.432 124.891 26.108 123.499 25.46C122.131 24.788 121.135 23.768 120.511 22.4C119.911 21.032 119.611 19.28 119.611 17.144C119.611 14.816 119.923 12.968 120.547 11.6C121.171 10.232 122.155 9.248 123.499 8.648C124.843 8.048 126.607 7.748 128.791 7.748ZM158.44 8.216L152.572 24.74C152.428 25.124 152.2 25.436 151.888 25.676C151.6 25.892 151.252 26 150.844 26H146.2C145.792 26 145.432 25.892 145.12 25.676C144.832 25.436 144.616 25.124 144.472 24.74L138.604 8.216H144.256L147.532 19.34C147.676 19.868 147.808 20.408 147.928 20.96C148.048 21.512 148.168 22.04 148.288 22.544H148.756C148.9 22.016 149.032 21.488 149.152 20.96C149.296 20.408 149.44 19.868 149.584 19.34L152.788 8.216H158.44ZM170.017 7.748C171.505 7.748 172.765 7.952 173.797 8.36C174.829 8.744 175.609 9.416 176.137 10.376C176.689 11.312 176.965 12.608 176.965 14.264V26H172.717L171.961 22.148L171.601 21.608V14.228C171.601 13.388 171.397 12.776 170.989 12.392C170.605 12.008 169.861 11.816 168.757 11.816C167.845 11.816 166.705 11.852 165.337 11.924C163.969 11.972 162.565 12.044 161.125 12.14L160.621 8.612C161.485 8.444 162.481 8.3 163.609 8.18C164.737 8.06 165.865 7.964 166.993 7.892C168.121 7.796 169.129 7.748 170.017 7.748ZM174.769 15.056L174.733 18.044L166.813 18.08C166.165 18.08 165.697 18.236 165.409 18.548C165.145 18.86 165.013 19.28 165.013 19.808V20.672C165.013 21.272 165.181 21.74 165.517 22.076C165.853 22.388 166.393 22.544 167.137 22.544C167.761 22.544 168.433 22.412 169.153 22.148C169.897 21.884 170.629 21.512 171.349 21.032C172.069 20.552 172.705 19.988 173.257 19.34V21.644C173.041 22.004 172.717 22.46 172.285 23.012C171.877 23.54 171.349 24.068 170.701 24.596C170.053 25.1 169.297 25.532 168.433 25.892C167.569 26.252 166.585 26.432 165.481 26.432C164.401 26.432 163.429 26.24 162.565 25.856C161.701 25.472 161.017 24.908 160.513 24.164C160.009 23.42 159.757 22.496 159.757 21.392V19.556C159.757 18.14 160.237 17.036 161.197 16.244C162.157 15.452 163.477 15.056 165.157 15.056H174.769ZM36.1568 43.692C37.3808 43.692 38.7128 43.764 40.1528 43.908C41.5928 44.028 42.9968 44.292 44.3648 44.7L44.0048 48.336C42.9488 48.312 41.7128 48.288 40.2968 48.264C38.8808 48.24 37.4888 48.228 36.1208 48.228C35.4488 48.228 34.8728 48.252 34.3928 48.3C33.9368 48.324 33.5648 48.42 33.2768 48.588C32.9888 48.732 32.7848 48.96 32.6648 49.272C32.5448 49.584 32.4848 50.016 32.4848 50.568C32.4848 51.408 32.6768 52.02 33.0608 52.404C33.4688 52.788 34.1528 53.136 35.1128 53.448L39.9008 54.996C41.8928 55.668 43.2728 56.58 44.0408 57.732C44.8088 58.884 45.1928 60.396 45.1928 62.268C45.1928 63.684 45.0248 64.86 44.6888 65.796C44.3528 66.732 43.8248 67.464 43.1048 67.992C42.3848 68.52 41.4368 68.892 40.2608 69.108C39.0848 69.348 37.6448 69.468 35.9408 69.468C35.1248 69.468 33.9608 69.408 32.4488 69.288C30.9368 69.192 29.2088 68.928 27.2648 68.496L27.6248 64.608C29.0408 64.632 30.2648 64.668 31.2968 64.716C32.3528 64.74 33.2528 64.764 33.9968 64.788C34.7408 64.788 35.3888 64.788 35.9408 64.788C36.9008 64.788 37.6448 64.728 38.1728 64.608C38.7248 64.488 39.1088 64.248 39.3248 63.888C39.5408 63.528 39.6488 63.012 39.6488 62.34C39.6488 61.764 39.5648 61.308 39.3968 60.972C39.2528 60.612 39.0008 60.336 38.6408 60.144C38.3048 59.928 37.8368 59.736 37.2368 59.568L32.1968 57.84C30.3008 57.144 28.9568 56.232 28.1648 55.104C27.3728 53.976 26.9768 52.488 26.9768 50.64C26.9768 49.2 27.1448 48.036 27.4808 47.148C27.8408 46.236 28.3808 45.528 29.1008 45.024C29.8448 44.52 30.7928 44.172 31.9448 43.98C33.1208 43.788 34.5248 43.692 36.1568 43.692ZM57.1786 50.748C59.4106 50.748 61.1986 51.06 62.5426 51.684C63.8866 52.284 64.8466 53.268 65.4226 54.636C66.0226 56.004 66.3226 57.84 66.3226 60.144C66.3226 62.4 66.0226 64.212 65.4226 65.58C64.8466 66.948 63.8866 67.932 62.5426 68.532C61.1986 69.132 59.4106 69.432 57.1786 69.432C54.9706 69.432 53.1826 69.132 51.8146 68.532C50.4706 67.932 49.4986 66.948 48.8986 65.58C48.2986 64.212 47.9986 62.4 47.9986 60.144C47.9986 57.84 48.2986 56.004 48.8986 54.636C49.4986 53.268 50.4706 52.284 51.8146 51.684C53.1826 51.06 54.9706 50.748 57.1786 50.748ZM57.1786 54.636C56.2666 54.636 55.5466 54.792 55.0186 55.104C54.4906 55.416 54.1186 55.968 53.9026 56.76C53.6866 57.552 53.5786 58.68 53.5786 60.144C53.5786 61.584 53.6866 62.7 53.9026 63.492C54.1186 64.284 54.4906 64.836 55.0186 65.148C55.5466 65.436 56.2666 65.58 57.1786 65.58C58.0906 65.58 58.8106 65.436 59.3386 65.148C59.8666 64.836 60.2386 64.284 60.4546 63.492C60.6706 62.7 60.7786 61.584 60.7786 60.144C60.7786 58.68 60.6706 57.552 60.4546 56.76C60.2386 55.968 59.8666 55.416 59.3386 55.104C58.8106 54.792 58.0906 54.636 57.1786 54.636ZM78.233 50.748C78.881 50.748 79.589 50.784 80.357 50.856C81.125 50.904 81.893 51.012 82.661 51.18C83.453 51.324 84.173 51.54 84.821 51.828L84.245 55.176C83.285 55.152 82.361 55.128 81.473 55.104C80.609 55.08 79.829 55.068 79.133 55.068C78.053 55.068 77.201 55.212 76.577 55.5C75.953 55.788 75.497 56.304 75.209 57.048C74.945 57.768 74.813 58.776 74.813 60.072C74.813 61.392 74.945 62.424 75.209 63.168C75.497 63.912 75.953 64.428 76.577 64.716C77.201 65.004 78.053 65.148 79.133 65.148C79.517 65.148 80.009 65.136 80.609 65.112C81.209 65.088 81.857 65.064 82.553 65.04C83.249 64.992 83.933 64.92 84.605 64.824L85.109 68.208C84.149 68.64 83.057 68.952 81.833 69.144C80.609 69.336 79.397 69.432 78.197 69.432C75.989 69.432 74.225 69.132 72.905 68.532C71.609 67.908 70.673 66.912 70.097 65.544C69.521 64.176 69.233 62.352 69.233 60.072C69.233 57.792 69.521 55.968 70.097 54.6C70.697 53.232 71.657 52.248 72.977 51.648C74.297 51.048 76.049 50.748 78.233 50.748ZM93.7054 51.216V69H88.4134V51.216H93.7054ZM92.2294 43.368C93.2854 43.368 93.8134 43.908 93.8134 44.988V46.896C93.8134 47.976 93.2854 48.516 92.2294 48.516H89.9254C88.8694 48.516 88.3414 47.976 88.3414 46.896V44.988C88.3414 43.908 88.8694 43.368 89.9254 43.368H92.2294ZM106.643 50.748C109.643 50.748 111.791 51.264 113.087 52.296C114.407 53.304 115.067 54.816 115.067 56.832C115.091 58.464 114.683 59.688 113.843 60.504C113.003 61.296 111.551 61.692 109.487 61.692H99.5506V58.704H108.011C108.827 58.704 109.343 58.536 109.559 58.2C109.799 57.84 109.919 57.348 109.919 56.724C109.895 55.884 109.643 55.308 109.163 54.996C108.707 54.66 107.927 54.492 106.823 54.492C105.839 54.492 105.071 54.624 104.519 54.888C103.967 55.152 103.583 55.656 103.367 56.4C103.151 57.144 103.043 58.224 103.043 59.64C103.043 61.128 103.175 62.28 103.439 63.096C103.703 63.888 104.147 64.44 104.771 64.752C105.419 65.064 106.307 65.22 107.435 65.22C108.251 65.22 109.259 65.196 110.459 65.148C111.683 65.076 112.907 64.968 114.131 64.824L114.635 68.1C113.939 68.436 113.147 68.7 112.259 68.892C111.371 69.084 110.459 69.216 109.523 69.288C108.587 69.384 107.687 69.432 106.823 69.432C104.567 69.432 102.743 69.108 101.351 68.46C99.9826 67.788 98.9866 66.768 98.3626 65.4C97.7626 64.032 97.4626 62.28 97.4626 60.144C97.4626 57.816 97.7746 55.968 98.3986 54.6C99.0226 53.232 100.007 52.248 101.351 51.648C102.695 51.048 104.459 50.748 106.643 50.748ZM125.487 46.284V63.312C125.487 63.96 125.631 64.428 125.919 64.716C126.231 64.98 126.735 65.112 127.431 65.112H129.735L130.311 68.712C129.879 68.856 129.351 68.976 128.727 69.072C128.103 69.192 127.479 69.276 126.855 69.324C126.231 69.396 125.703 69.432 125.271 69.432C123.663 69.432 122.403 69 121.491 68.136C120.603 67.272 120.159 66.06 120.159 64.5L120.123 46.284H125.487ZM130.455 51.216V54.708H117.027V51.396L120.483 51.216H130.455ZM151.197 51.216L144.825 69.216C144.537 70.104 144.129 70.992 143.601 71.88C143.097 72.792 142.449 73.608 141.657 74.328C140.889 75.048 139.953 75.588 138.849 75.948C137.769 76.332 136.485 76.428 134.997 76.236L134.601 73.212C136.065 72.828 137.205 72.312 138.021 71.664C138.837 71.016 139.473 70.164 139.929 69.108L141.045 66.624C141.261 66.096 141.465 65.46 141.657 64.716C141.873 63.948 142.053 63.288 142.197 62.736L145.509 51.216H151.197ZM137.085 51.216L140.469 62.736C140.565 63.192 140.661 63.648 140.757 64.104C140.853 64.56 140.937 65.016 141.009 65.472H141.981L140.289 69H138.993C138.585 69 138.225 68.88 137.913 68.64C137.601 68.4 137.385 68.088 137.265 67.704L131.397 51.216H137.085Z" fill="black"/>
</svg>
